<?xml version="1.0" encoding="UTF-8"?>
<svg width="467px" height="257px" viewBox="0 0 467 257" version="1.1" xmlns="http://www.w3.org/2000/svg" xmlns:xlink="http://www.w3.org/1999/xlink">
    <!-- Generator: Sketch 55.1 (78136) - https://sketchapp.com -->
    <title>Illo</title>
    <desc>Created with Sketch.</desc>
    <defs>
        <path d="M37.1040311,9.11045095 C23.2526349,12.4731256 0.0163009434,19.8301377 0.0163009434,31.315074 L0.0163009434,31.315074 L1.77812453,31.315074 C1.77812453,23.8112048 14.8052217,16.3444923 37.5181632,10.8298296 L37.5181632,10.8298296 C60.9346887,5.14442341 92.0813858,2.01353528 125.222085,2.01353528 L125.222085,2.01353528 C158.362784,2.01353528 189.509922,5.14442341 212.926007,10.8298296 L212.926007,10.8298296 C235.638948,16.3444923 248.666045,23.8112048 248.666045,31.315074 L248.666045,31.315074 L250.427869,31.315074 C250.427869,19.8301377 227.191535,12.4731256 213.340139,9.11045095 L213.340139,9.11045095 C189.792765,3.39275387 158.498038,0.244172117 125.222085,0.244172117 L125.222085,0.244172117 C91.9461321,0.244172117 60.6518453,3.39275387 37.1040311,9.11045095" id="path-1"></path>
        <linearGradient x1="0.96012247%" y1="51.4481785%" x2="97.9952568%" y2="49.3166398%" id="linearGradient-3">
            <stop stop-color="#ACD1F9" offset="0%"></stop>
            <stop stop-color="#74F9D6" offset="100%"></stop>
        </linearGradient>
        <path d="M37.1040311,8.98836489 C23.2526349,12.3510396 0.0163009434,19.7080516 0.0163009434,31.192988 L0.0163009434,31.192988 L1.77812453,31.192988 C1.77812453,23.6891188 14.8052217,16.2224062 37.5181632,10.7077435 L37.5181632,10.7077435 C60.9346887,5.02233735 92.0813858,1.89100688 125.222085,1.89100688 L125.222085,1.89100688 C158.362784,1.89100688 189.509922,5.02233735 212.926007,10.7077435 L212.926007,10.7077435 C235.638948,16.2224062 248.666045,23.6891188 248.666045,31.192988 L248.666045,31.192988 L250.427869,31.192988 C250.427869,19.7080516 227.191535,12.3510396 213.340139,8.98836489 L213.340139,8.98836489 C189.792765,3.27066781 158.498038,0.122086059 125.222085,0.122086059 L125.222085,0.122086059 C91.9461321,0.122086059 60.6518453,3.27066781 37.1040311,8.98836489" id="path-4"></path>
        <linearGradient x1="0.96012247%" y1="51.4481705%" x2="97.9952568%" y2="49.3166318%" id="linearGradient-6">
            <stop stop-color="#ACD1F9" offset="0%"></stop>
            <stop stop-color="#74F9D6" offset="100%"></stop>
        </linearGradient>
        <path d="M37.1040311,9.09408434 C23.2526349,12.4572014 0.0163009434,19.8142134 0.0163009434,31.2991497 L0.0163009434,31.2991497 L1.77812453,31.2991497 C1.77812453,23.7952806 14.8052217,16.3290103 37.5181632,10.8139053 L37.5181632,10.8139053 C60.9346887,5.12849914 92.0818264,1.99761102 125.222085,1.99761102 L125.222085,1.99761102 C158.362784,1.99761102 189.509481,5.12849914 212.926007,10.8139053 L212.926007,10.8139053 C235.638948,16.3290103 248.666045,23.7952806 248.666045,31.2991497 L248.666045,31.2991497 L250.427869,31.2991497 C250.427869,19.8142134 227.191535,12.4572014 213.340139,9.09408434 L213.340139,9.09408434 C189.792325,3.37638726 158.498038,0.227805508 125.222085,0.227805508 L125.222085,0.227805508 C91.9461321,0.227805508 60.6518453,3.37638726 37.1040311,9.09408434" id="path-7"></path>
        <linearGradient x1="0.96012247%" y1="51.4482072%" x2="97.9952568%" y2="49.3166382%" id="linearGradient-9">
            <stop stop-color="#ACD1F9" offset="0%"></stop>
            <stop stop-color="#74F9D6" offset="100%"></stop>
        </linearGradient>
        <path d="M125.222085,0.437917384 C91.9461321,0.437917384 60.6518453,3.58649914 37.1040311,9.30375387 L37.1040311,9.30375387 C23.2526349,12.6668709 0.0163009434,20.023883 0.0163009434,31.5088193 L0.0163009434,31.5088193 L1.77812453,31.5088193 C1.77812453,24.0049501 14.8052217,16.5386799 37.5181632,11.0235749 L37.5181632,11.0235749 C60.9346887,5.33861102 92.0818264,2.20683821 125.222085,2.20683821 L125.222085,2.20683821 C158.362784,2.20683821 189.509481,5.33861102 212.926007,11.0235749 L212.926007,11.0235749 C235.638948,16.5386799 248.666045,24.0049501 248.666045,31.5088193 L248.666045,31.5088193 L250.427869,31.5088193 C250.427869,20.023883 227.191535,12.6668709 213.340139,9.30375387 L213.340139,9.30375387 C189.792325,3.58649914 158.498038,0.437917384 125.222085,0.437917384 Z" id="path-10"></path>
        <linearGradient x1="0.96012247%" y1="51.4481676%" x2="97.9952568%" y2="49.3166289%" id="linearGradient-12">
            <stop stop-color="#ACD1F9" offset="0%"></stop>
            <stop stop-color="#74F9D6" offset="100%"></stop>
        </linearGradient>
        <polygon id="path-13" points="0.015904434 0.274693632 6.99310472 0.274693632 6.99310472 7.28048709 0.015904434 7.28048709"></polygon>
        <path d="M248.666045,0.33529432 C248.666045,7.83916351 235.638948,15.3054337 212.926007,20.8200964 L212.926007,20.8200964 C189.509922,26.5059449 158.362784,29.636833 125.222085,29.636833 L125.222085,29.636833 C92.0813858,29.636833 60.9346887,26.5059449 37.5181632,20.8200964 L37.5181632,20.8200964 C14.8052217,15.3054337 1.77812453,7.83916351 1.77812453,0.33529432 L1.77812453,0.33529432 L0.0163009434,0.33529432 C0.0163009434,11.8202306 23.2526349,19.1772427 37.1040311,22.5399174 L37.1040311,22.5399174 C60.6518453,28.2576145 91.9461321,31.4061962 125.222085,31.4061962 L125.222085,31.4061962 C158.498038,31.4061962 189.792765,28.2576145 213.340139,22.5399174 L213.340139,22.5399174 C227.191535,19.1772427 250.427869,11.8202306 250.427869,0.33529432 L250.427869,0.33529432 L248.666045,0.33529432 Z" id="path-15"></path>
        <linearGradient x1="2.00481687%" y1="50.6833549%" x2="99.0399512%" y2="48.5518162%" id="linearGradient-17">
            <stop stop-color="#ACD1F9" offset="0%"></stop>
            <stop stop-color="#74F9D6" offset="100%"></stop>
        </linearGradient>
        <path d="M248.666045,0.351218589 C248.666045,7.85508778 235.638948,15.3218003 212.926007,20.836463 L212.926007,20.836463 C189.509922,26.5218692 158.362784,29.6527573 125.222085,29.6527573 L125.222085,29.6527573 C92.0813858,29.6527573 60.9346887,26.5218692 37.5181632,20.836463 L37.5181632,20.836463 C14.8052217,15.3218003 1.77812453,7.85508778 1.77812453,0.351218589 L1.77812453,0.351218589 L0.0163009434,0.351218589 C0.0163009434,11.8361549 23.2526349,19.1927246 37.1040311,22.5558417 L37.1040311,22.5558417 C60.6518453,28.2735387 91.9461321,31.4221205 125.222085,31.4221205 L125.222085,31.4221205 C158.498038,31.4221205 189.792765,28.2735387 213.340139,22.5558417 L213.340139,22.5558417 C227.191535,19.1927246 250.427869,11.8361549 250.427869,0.351218589 L250.427869,0.351218589 L248.666045,0.351218589 Z" id="path-18"></path>
        <linearGradient x1="2.00481687%" y1="50.6833576%" x2="99.0399512%" y2="48.5518189%" id="linearGradient-20">
            <stop stop-color="#ACD1F9" offset="0%"></stop>
            <stop stop-color="#74F9D6" offset="100%"></stop>
        </linearGradient>
        <path d="M248.666045,0.22913253 C248.666045,7.73255938 235.638948,15.1992719 212.926007,20.7139346 L212.926007,20.7139346 C189.509481,26.3988985 158.362784,29.5306713 125.222085,29.5306713 L125.222085,29.5306713 C92.0818264,29.5306713 60.9346887,26.3988985 37.5181632,20.7139346 L37.5181632,20.7139346 C14.8052217,15.1992719 1.77812453,7.73255938 1.77812453,0.22913253 L1.77812453,0.22913253 L0.0163009434,0.22913253 C0.0163009434,11.7136265 23.2526349,19.0706386 37.1040311,22.4333133 L37.1040311,22.4333133 C60.6518453,28.1510103 91.9461321,31.2995921 125.222085,31.2995921 L125.222085,31.2995921 C158.498038,31.2995921 189.792325,28.1510103 213.340139,22.4333133 L213.340139,22.4333133 C227.191535,19.0706386 250.427869,11.7136265 250.427869,0.22913253 L250.427869,0.22913253 L248.666045,0.22913253 Z" id="path-21"></path>
        <linearGradient x1="2.00481687%" y1="50.6833504%" x2="99.0399512%" y2="48.5518421%" id="linearGradient-23">
            <stop stop-color="#ACD1F9" offset="0%"></stop>
            <stop stop-color="#74F9D6" offset="100%"></stop>
        </linearGradient>
        <path d="M248.666045,0.102623064 C248.666045,7.60604991 235.638948,15.0727625 212.926007,20.5874251 L212.926007,20.5874251 C189.509922,26.2728313 158.362784,29.4041618 125.222085,29.4041618 L125.222085,29.4041618 C92.0813858,29.4041618 60.9346887,26.2728313 37.5181632,20.5874251 L37.5181632,20.5874251 C14.8052217,15.0727625 1.77812453,7.60604991 1.77812453,0.102623064 L1.77812453,0.102623064 L0.0163009434,0.102623064 C0.0163009434,11.587117 23.2526349,18.9441291 37.1040311,22.3068038 L37.1040311,22.3068038 C60.6518453,28.0245009 91.9461321,31.1730826 125.222085,31.1730826 L125.222085,31.1730826 C158.498038,31.1730826 189.792765,28.0245009 213.340139,22.3068038 L213.340139,22.3068038 C227.191535,18.9441291 250.427869,11.587117 250.427869,0.102623064 L250.427869,0.102623064 L248.666045,0.102623064 Z" id="path-24"></path>
        <linearGradient x1="2.00481687%" y1="50.6833479%" x2="99.0399512%" y2="48.5518395%" id="linearGradient-26">
            <stop stop-color="#ACD1F9" offset="0%"></stop>
            <stop stop-color="#74F9D6" offset="100%"></stop>
        </linearGradient>
    </defs>
    <g id="Resources" stroke="none" stroke-width="1" fill="none" fill-rule="evenodd">
        <g id="Security-details" transform="translate(-764.000000, -162.000000)">
            <g id="Header">
                <g id="Illo" transform="translate(764.000000, 162.000000)">
                    <g id="Group-3" transform="translate(104.414151, 68.125348)">
                        <mask id="mask-2" fill="white">
                            <use xlink:href="#path-1"></use>
                        </mask>
                        <g id="Clip-2"></g>
                        <path d="M37.1040311,9.11045095 C23.2526349,12.4731256 0.0163009434,19.8301377 0.0163009434,31.315074 L0.0163009434,31.315074 L1.77812453,31.315074 C1.77812453,23.8112048 14.8052217,16.3444923 37.5181632,10.8298296 L37.5181632,10.8298296 C60.9346887,5.14442341 92.0813858,2.01353528 125.222085,2.01353528 L125.222085,2.01353528 C158.362784,2.01353528 189.509922,5.14442341 212.926007,10.8298296 L212.926007,10.8298296 C235.638948,16.3444923 248.666045,23.8112048 248.666045,31.315074 L248.666045,31.315074 L250.427869,31.315074 C250.427869,19.8301377 227.191535,12.4731256 213.340139,9.11045095 L213.340139,9.11045095 C189.792765,3.39275387 158.498038,0.244172117 125.222085,0.244172117 L125.222085,0.244172117 C91.9461321,0.244172117 60.6518453,3.39275387 37.1040311,9.11045095" id="Fill-1" fill="url(#linearGradient-3)" mask="url(#mask-2)"></path>
                    </g>
                    <g id="Group-6" transform="translate(104.414151, 135.803489)">
                        <mask id="mask-5" fill="white">
                            <use xlink:href="#path-4"></use>
                        </mask>
                        <g id="Clip-5"></g>
                        <path d="M37.1040311,8.98836489 C23.2526349,12.3510396 0.0163009434,19.7080516 0.0163009434,31.192988 L0.0163009434,31.192988 L1.77812453,31.192988 C1.77812453,23.6891188 14.8052217,16.2224062 37.5181632,10.7077435 L37.5181632,10.7077435 C60.9346887,5.02233735 92.0813858,1.89100688 125.222085,1.89100688 L125.222085,1.89100688 C158.362784,1.89100688 189.509922,5.02233735 212.926007,10.7077435 L212.926007,10.7077435 C235.638948,16.2224062 248.666045,23.6891188 248.666045,31.192988 L248.666045,31.192988 L250.427869,31.192988 C250.427869,19.7080516 227.191535,12.3510396 213.340139,8.98836489 L213.340139,8.98836489 C189.792765,3.27066781 158.498038,0.122086059 125.222085,0.122086059 L125.222085,0.122086059 C91.9461321,0.122086059 60.6518453,3.27066781 37.1040311,8.98836489" id="Fill-4" fill="url(#linearGradient-6)" mask="url(#mask-5)"></path>
                    </g>
                    <g id="Group-9" transform="translate(104.414151, 194.192473)">
                        <mask id="mask-8" fill="white">
                            <use xlink:href="#path-7"></use>
                        </mask>
                        <g id="Clip-8"></g>
                        <path d="M37.1040311,9.09408434 C23.2526349,12.4572014 0.0163009434,19.8142134 0.0163009434,31.2991497 L0.0163009434,31.2991497 L1.77812453,31.2991497 C1.77812453,23.7952806 14.8052217,16.3290103 37.5181632,10.8139053 L37.5181632,10.8139053 C60.9346887,5.12849914 92.0818264,1.99761102 125.222085,1.99761102 L125.222085,1.99761102 C158.362784,1.99761102 189.509481,5.12849914 212.926007,10.8139053 L212.926007,10.8139053 C235.638948,16.3290103 248.666045,23.7952806 248.666045,31.2991497 L248.666045,31.2991497 L250.427869,31.2991497 C250.427869,19.8142134 227.191535,12.4572014 213.340139,9.09408434 L213.340139,9.09408434 C189.792325,3.37638726 158.498038,0.227805508 125.222085,0.227805508 L125.222085,0.227805508 C91.9461321,0.227805508 60.6518453,3.37638726 37.1040311,9.09408434" id="Fill-7" fill="url(#linearGradient-9)" mask="url(#mask-8)"></path>
                    </g>
                    <g id="Group-12" transform="translate(104.414151, 0.004866)">
                        <mask id="mask-11" fill="white">
                            <use xlink:href="#path-10"></use>
                        </mask>
                        <g id="Clip-11"></g>
                        <path d="M125.222085,0.437917384 C91.9461321,0.437917384 60.6518453,3.58649914 37.1040311,9.30375387 L37.1040311,9.30375387 C23.2526349,12.6668709 0.0163009434,20.023883 0.0163009434,31.5088193 L0.0163009434,31.5088193 L1.77812453,31.5088193 C1.77812453,24.0049501 14.8052217,16.5386799 37.5181632,11.0235749 L37.5181632,11.0235749 C60.9346887,5.33861102 92.0818264,2.20683821 125.222085,2.20683821 L125.222085,2.20683821 C158.362784,2.20683821 189.509481,5.33861102 212.926007,11.0235749 L212.926007,11.0235749 C235.638948,16.5386799 248.666045,24.0049501 248.666045,31.5088193 L248.666045,31.5088193 L250.427869,31.5088193 C250.427869,20.023883 227.191535,12.6668709 213.340139,9.30375387 L213.340139,9.30375387 C189.792325,3.58649914 158.498038,0.437917384 125.222085,0.437917384 Z" id="Fill-10" fill="url(#linearGradient-12)" mask="url(#mask-11)"></path>
                    </g>
                    <g id="Group-74" transform="translate(0.000000, 29.199358)">
                        <path d="M235.405977,0.348608778 C234.151245,-0.109656282 232.777119,-0.109656282 231.521065,0.348608778 L157.516545,27.3681114 C154.647579,28.415132 152.737725,31.1532215 152.737725,34.2182009 L152.737725,71.6455399 L152.737725,144.667158 C152.737725,154.993161 157.771632,164.637075 166.154723,170.372466 L233.463521,213.32066 L293.434692,170.372466 C301.817342,164.637075 314.189758,154.993161 314.189758,144.667158 L314.189758,71.6641182 L314.189758,34.2182009 C314.189758,31.1532215 312.279904,28.415132 309.411379,27.3681114 L235.405977,0.348608778 Z" id="Fill-13" fill="#404757"></path>
                        <path d="M263.440427,121.769431 C263.440427,139.284357 249.298698,153.482169 231.854926,153.482169 C214.410714,153.482169 200.268985,139.284357 200.268985,121.769431 C200.268985,104.254947 214.410714,90.0566926 231.854926,90.0566926 C249.298698,90.0566926 263.440427,104.254947 263.440427,121.769431" id="Fill-15" fill="#2F9F90"></path>
                        <path d="M227.584211,134.262506 C227.211493,134.262506 226.837452,134.144401 226.519363,133.901998 L219.349151,128.426262 C218.575077,127.834852 218.424843,126.725461 219.01344,125.948711 C219.602477,125.172845 220.706094,125.023334 221.48061,125.611647 L227.340138,130.086809 L244.081207,110.801635 C244.720468,110.06735 245.831135,109.989055 246.565559,110.630892 C247.29822,111.272286 247.374438,112.388754 246.735617,113.124809 L228.912518,133.656499 C228.565793,134.055933 228.076764,134.262506 227.584211,134.262506" id="Fill-17" fill="#FFFFFF"></path>
                        <path d="M314.190287,34.2178912 C314.190287,31.1529119 312.280433,28.4152647 309.411467,27.3682441 L235.406505,0.349183821 C234.150892,-0.10952358 232.776767,-0.10952358 231.521154,0.349183821 L157.516192,27.3682441 C154.647226,28.4152647 152.737372,31.1529119 152.737372,34.2178912 L152.737372,71.6452303 C153.383683,71.6452303 154.038805,71.5541081 154.680709,71.3183404 L233.46405,42.5577845 L312.24695,71.3183404 C312.887973,71.5536657 313.543976,71.6638086 314.190287,71.6638086 L314.190287,71.6638086 L314.190287,34.2178912 Z" id="Fill-19" fill="#2F9F90"></path>
                        <path d="M317.800417,191.554751 L275.696842,191.554751 C274.213897,191.554751 273.012033,190.347603 273.012033,188.859126 L273.012033,143.845643 C273.012033,142.356281 274.213897,141.149575 275.696842,141.149575 L317.800417,141.149575 C319.283362,141.149575 320.485667,142.356281 320.485667,143.845643 L320.485667,188.859126 C320.485667,190.347603 319.283362,191.554751 317.800417,191.554751" id="Fill-21" fill="#E5AA4B"></path>
                        <path d="M314.783553,141.149487 L308.054347,141.149487 L308.054347,135.935174 C308.054347,129.676494 302.982551,124.584267 296.748542,124.584267 C290.514973,124.584267 285.443176,129.676494 285.443176,135.935174 L285.443176,141.149487 L278.71353,141.149487 L278.71353,135.935174 C278.71353,125.950657 286.804085,117.827069 296.748542,117.827069 C306.693439,117.827069 314.783553,125.950657 314.783553,135.935174 L314.783553,141.149487 Z" id="Fill-23" fill="#E5AA4B"></path>
                        <path d="M309.736869,181.99904 L283.760655,181.99904 C282.935915,181.99904 282.267576,181.328009 282.267576,180.499947 C282.267576,179.672327 282.935915,179.001739 283.760655,179.001739 L309.736869,179.001739 C310.561168,179.001739 311.229507,179.672327 311.229507,180.499947 C311.229507,181.328009 310.561168,181.99904 309.736869,181.99904" id="Fill-25" fill="#B08338"></path>
                        <path d="M300.33867,160.377068 C301.860826,159.262812 302.850778,157.45983 302.850778,155.423736 C302.850778,152.039829 300.118828,149.296873 296.748938,149.296873 C293.378167,149.296873 290.646217,152.039829 290.646217,155.423736 C290.646217,157.45983 291.63661,159.262812 293.158765,160.377068 L290.865179,169.412321 C290.754156,169.849354 291.083259,170.274443 291.533077,170.274443 L301.964359,170.274443 C302.413736,170.274443 302.742839,169.849354 302.631816,169.412321 L300.33867,160.377068 Z" id="Fill-27" fill="#B08338"></path>
                        <path d="M10.1435484,66.1960341 C9.97437104,66.1960341 9.80519368,66.1314523 9.67610783,66.0018465 L9.05314745,65.3759343 C8.79497575,65.1176072 8.79497575,64.6969411 9.05270689,64.4377294 C9.31087858,64.1785177 9.72941632,64.1785177 9.98758802,64.4377294 L10.610989,65.0631993 C10.8687201,65.3219687 10.8687201,65.7426348 10.610989,66.0018465 C10.4819031,66.1314523 10.3127258,66.1960341 10.1435484,66.1960341 M15.4395927,71.5134127 C15.2704154,71.5134127 15.101238,71.4483886 14.9721522,71.3187828 L14.3491918,70.6933129 C14.0910201,70.4341012 14.0910201,70.0143198 14.3491918,69.7551081 C14.6073635,69.4958964 15.0254607,69.4958964 15.2836324,69.7551081 L15.9065927,70.380578 C16.1647644,70.6397897 16.1647644,71.0595711 15.9065927,71.3187828 C15.7775069,71.4483886 15.6083295,71.5134127 15.4395927,71.5134127 M20.7356371,76.8307914 C20.5660192,76.8307914 20.3968418,76.7662096 20.2677559,76.6366038 L19.6447956,76.0102492 C19.3870644,75.7514799 19.3870644,75.3308138 19.6452361,75.0720444 C19.9034078,74.8123904 20.3219456,74.813275 20.5796767,75.0720444 L21.2030776,75.6979566 C21.4608088,75.9571683 21.4608088,76.3778344 21.2026371,76.6366038 C21.0735512,76.7662096 20.9043739,76.8307914 20.7356371,76.8307914 M26.0312408,82.1481701 C25.8620635,82.1481701 25.6928861,82.083146 25.5638003,81.9535401 L24.9408399,81.3280702 C24.6826682,81.0688585 24.6826682,80.6490771 24.9408399,80.3898654 C25.1990116,80.1306537 25.6175493,80.1306537 25.8752805,80.3898654 L26.4986814,81.0153353 C26.7564125,81.274547 26.7564125,81.6943284 26.4986814,81.9535401 C26.3695956,82.083146 26.2004182,82.1481701 26.0312408,82.1481701 M31.3272852,87.4651064 C31.1581078,87.4651064 30.9889305,87.4005246 30.8598446,87.2709188 L30.2368842,86.6450065 C29.9787125,86.3862372 29.9787125,85.9660134 30.2368842,85.7068017 C30.4950559,85.44759 30.9135937,85.44759 31.1713248,85.7068017 L31.7947258,86.3322716 C32.0524569,86.5914833 32.0524569,87.0117071 31.7947258,87.2709188 C31.6656399,87.4005246 31.4964625,87.4651064 31.3272852,87.4651064 M36.6233295,92.782485 C36.4541522,92.782485 36.2849748,92.7179033 36.155889,92.5882974 L35.532488,91.9623852 C35.2747569,91.7031735 35.2747569,91.2829497 35.5329286,91.0241804 C35.7911003,90.7649687 36.209638,90.7649687 36.4673692,91.0241804 L37.0907701,91.6500926 C37.3485012,91.9093043 37.3485012,92.3295281 37.0907701,92.5882974 C36.9616842,92.7179033 36.7925069,92.782485 36.6233295,92.782485 M41.9193739,98.0998637 C41.7501965,98.0998637 41.5810192,98.0352819 41.4519333,97.9056761 L40.8289729,97.2797639 C40.5708012,97.0209945 40.5708012,96.6007707 40.8289729,96.341559 C41.0871446,96.0823473 41.5052418,96.0823473 41.7634135,96.341559 L42.3863739,96.9670289 C42.6445456,97.2262406 42.6445456,97.6464644 42.3863739,97.9056761 C42.257288,98.0352819 42.0881107,98.0998637 41.9193739,98.0998637 M47.2154182,103.417242 C47.0462408,103.417242 46.8770635,103.352218 46.7479776,103.222612 L46.1250173,102.597143 C45.8668456,102.337931 45.8668456,101.918149 46.1250173,101.658938 C46.383189,101.399726 46.8012861,101.399726 47.0594578,101.658938 L47.6824182,102.284408 C47.9405899,102.543619 47.9405899,102.963401 47.6824182,103.222612 C47.5533324,103.352218 47.384155,103.417242 47.2154182,103.417242 M52.511022,108.734621 C52.3418446,108.734621 52.1726673,108.670039 52.0435814,108.540433 L51.420621,107.914521 C51.1624493,107.655309 51.1624493,107.234643 51.4210616,106.975874 C51.6787927,106.71622 52.097771,106.717105 52.3555022,106.975874 L52.9784625,107.601786 C53.2366342,107.860998 53.2366342,108.281664 52.978022,108.540433 C52.8493767,108.670039 52.6801993,108.734621 52.511022,108.734621 M57.8070663,114.052 C57.637889,114.052 57.4687116,113.986976 57.3396258,113.85737 L56.7166654,113.2319 C56.4584937,112.972688 56.4584937,112.552907 56.7166654,112.293695 C56.9748371,112.034483 57.3933748,112.034483 57.6511059,112.293695 L58.2745069,112.919165 C58.532238,113.178377 58.532238,113.598158 58.2745069,113.85737 C58.145421,113.986976 57.9762437,114.052 57.8070663,114.052 M63.1031107,119.368936 C62.9339333,119.368936 62.7647559,119.304354 62.6356701,119.174748 L62.0127097,118.548836 C61.754538,118.290509 61.754538,117.869843 62.0122692,117.610631 C62.2704408,117.35142 62.6889786,117.35142 62.9471503,117.610631 L63.5705512,118.236101 C63.8282824,118.494871 63.8282824,118.915537 63.5705512,119.174748 C63.4414654,119.304354 63.272288,119.368936 63.1031107,119.368936 M69.9631644,120.895012 L69.0820324,120.895012 C68.7168031,120.895012 68.4211833,120.597759 68.4211833,120.231501 C68.4211833,119.865242 68.7168031,119.567989 69.0820324,119.567989 L69.9631644,119.567989 C70.3279531,119.567989 70.6240135,119.865242 70.6240135,120.231501 C70.6240135,120.597759 70.3279531,120.895012 69.9631644,120.895012 M77.4527871,120.895012 L76.571655,120.895012 C76.2064258,120.895012 75.9108059,120.597759 75.9108059,120.231501 C75.9108059,119.865242 76.2064258,119.567989 76.571655,119.567989 L77.4527871,119.567989 C77.8175758,119.567989 78.1136361,119.865242 78.1136361,120.231501 C78.1136361,120.597759 77.8175758,120.895012 77.4527871,120.895012 M84.9424097,120.895012 L84.0612776,120.895012 C83.6960484,120.895012 83.4004286,120.597759 83.4004286,120.231501 C83.4004286,119.865242 83.6960484,119.567989 84.0612776,119.567989 L84.9424097,119.567989 C85.3071984,119.567989 85.6032588,119.865242 85.6032588,120.231501 C85.6032588,120.597759 85.3071984,120.895012 84.9424097,120.895012 M92.4320324,120.895012 L91.5509003,120.895012 C91.185671,120.895012 90.8900512,120.597759 90.8900512,120.231501 C90.8900512,119.865242 91.185671,119.567989 91.5509003,119.567989 L92.4320324,119.567989 C92.796821,119.567989 93.0928814,119.865242 93.0928814,120.231501 C93.0928814,120.597759 92.796821,120.895012 92.4320324,120.895012 M99.921655,120.895012 L99.0405229,120.895012 C98.6752937,120.895012 98.3796739,120.597759 98.3796739,120.231501 C98.3796739,119.865242 98.6752937,119.567989 99.0405229,119.567989 L99.921655,119.567989 C100.286444,119.567989 100.582504,119.865242 100.582504,120.231501 C100.582504,120.597759 100.286444,120.895012 99.921655,120.895012 M107.411278,120.895012 L106.530146,120.895012 C106.164916,120.895012 105.869297,120.597759 105.869297,120.231501 C105.869297,119.865242 106.164916,119.567989 106.530146,119.567989 L107.411278,119.567989 C107.776066,119.567989 108.072127,119.865242 108.072127,120.231501 C108.072127,120.597759 107.776066,120.895012 107.411278,120.895012 M114.9009,120.895012 L114.019768,120.895012 C113.654539,120.895012 113.358919,120.597759 113.358919,120.231501 C113.358919,119.865242 113.654539,119.567989 114.019768,119.567989 L114.9009,119.567989 C115.265689,119.567989 115.561749,119.865242 115.561749,120.231501 C115.561749,120.597759 115.265689,120.895012 114.9009,120.895012 M122.390523,120.895012 L121.509391,120.895012 C121.144602,120.895012 120.848542,120.597759 120.848542,120.231501 C120.848542,119.865242 121.144602,119.567989 121.509391,119.567989 L122.390523,119.567989 C122.755312,119.567989 123.051372,119.865242 123.051372,120.231501 C123.051372,120.597759 122.755312,120.895012 122.390523,120.895012 M129.880146,120.895012 L128.999013,120.895012 C128.634225,120.895012 128.338164,120.597759 128.338164,120.231501 C128.338164,119.865242 128.634225,119.567989 128.999013,119.567989 L129.880146,119.567989 C130.244934,119.567989 130.540995,119.865242 130.540995,120.231501 C130.540995,120.597759 130.244934,120.895012 129.880146,120.895012 M137.369768,120.895012 L136.488636,120.895012 C136.123847,120.895012 135.827787,120.597759 135.827787,120.231501 C135.827787,119.865242 136.123847,119.567989 136.488636,119.567989 L137.369768,119.567989 C137.734557,119.567989 138.030617,119.865242 138.030617,120.231501 C138.030617,120.597759 137.734557,120.895012 137.369768,120.895012 M144.859391,120.895012 L143.978259,120.895012 C143.61347,120.895012 143.31741,120.597759 143.31741,120.231501 C143.31741,119.865242 143.61347,119.567989 143.978259,119.567989 L144.859391,119.567989 C145.22418,119.567989 145.52024,119.865242 145.52024,120.231501 C145.52024,120.597759 145.22418,120.895012 144.859391,120.895012 M152.349013,120.895012 L151.467881,120.895012 C151.103093,120.895012 150.807032,120.597759 150.807032,120.231501 C150.807032,119.865242 151.103093,119.567989 151.467881,119.567989 L152.349013,119.567989 C152.713802,119.567989 153.009863,119.865242 153.009863,120.231501 C153.009863,120.597759 152.713802,120.895012 152.349013,120.895012" id="Fill-29" fill="#FFFFFF"></path>
                        <path d="M151.014319,146.147407 L150.573753,146.147407 C150.208964,146.147407 149.912904,145.850154 149.912904,145.483896 C149.912904,145.117638 150.208964,144.820385 150.573753,144.820385 L151.014319,144.820385 C151.379107,144.820385 151.675168,145.117638 151.675168,145.483896 C151.675168,145.850154 151.379107,146.147407 151.014319,146.147407" id="Fill-31" fill="#FFFFFF"></path>
                        <path d="M34.5605553,146.147407 L33.7010109,146.147407 C33.3362223,146.147407 33.0401619,145.850154 33.0401619,145.483896 C33.0401619,145.117638 33.3362223,144.820385 33.7010109,144.820385 L34.5605553,144.820385 C34.9257845,144.820385 35.2214043,145.117638 35.2214043,145.483896 C35.2214043,145.850154 34.9257845,146.147407 34.5605553,146.147407 M41.8651402,146.147407 L41.0055958,146.147407 C40.6408072,146.147407 40.3447468,145.850154 40.3447468,145.483896 C40.3447468,145.117638 40.6408072,144.820385 41.0055958,144.820385 L41.8651402,144.820385 C42.2303694,144.820385 42.5259892,145.117638 42.5259892,145.483896 C42.5259892,145.850154 42.2303694,146.147407 41.8651402,146.147407 M49.1697251,146.147407 L48.3101808,146.147407 C47.9453921,146.147407 47.6493317,145.850154 47.6493317,145.483896 C47.6493317,145.117638 47.9453921,144.820385 48.3101808,144.820385 L49.1697251,144.820385 C49.5345138,144.820385 49.8305742,145.117638 49.8305742,145.483896 C49.8305742,145.850154 49.5345138,146.147407 49.1697251,146.147407 M56.47431,146.147407 L55.6147657,146.147407 C55.2495364,146.147407 54.9539166,145.850154 54.9539166,145.483896 C54.9539166,145.117638 55.2495364,144.820385 55.6147657,144.820385 L56.47431,144.820385 C56.8390987,144.820385 57.1351591,145.117638 57.1351591,145.483896 C57.1351591,145.850154 56.8390987,146.147407 56.47431,146.147407 M63.7788949,146.147407 L62.9193506,146.147407 C62.5545619,146.147407 62.2585015,145.850154 62.2585015,145.483896 C62.2585015,145.117638 62.5545619,144.820385 62.9193506,144.820385 L63.7788949,144.820385 C64.1436836,144.820385 64.439744,145.117638 64.439744,145.483896 C64.439744,145.850154 64.1436836,146.147407 63.7788949,146.147407 M71.0830392,146.147407 L70.2239355,146.147407 C69.8591468,146.147407 69.5630864,145.850154 69.5630864,145.483896 C69.5630864,145.117638 69.8591468,144.820385 70.2239355,144.820385 L71.0830392,144.820385 C71.4482685,144.820385 71.7438883,145.117638 71.7438883,145.483896 C71.7438883,145.850154 71.4482685,146.147407 71.0830392,146.147407 M78.3876242,146.147407 L77.5285204,146.147407 C77.1632911,146.147407 76.8676713,145.850154 76.8676713,145.483896 C76.8676713,145.117638 77.1632911,144.820385 77.5285204,144.820385 L78.3876242,144.820385 C78.7528534,144.820385 79.0484732,145.117638 79.0484732,145.483896 C79.0484732,145.850154 78.7528534,146.147407 78.3876242,146.147407 M85.6926496,146.147407 L84.8331053,146.147407 C84.467876,146.147407 84.1722562,145.850154 84.1722562,145.483896 C84.1722562,145.117638 84.467876,144.820385 84.8331053,144.820385 L85.6926496,144.820385 C86.0574383,144.820385 86.3534987,145.117638 86.3534987,145.483896 C86.3534987,145.850154 86.0574383,146.147407 85.6926496,146.147407 M92.996794,146.147407 L92.1376902,146.147407 C91.7724609,146.147407 91.4768411,145.850154 91.4768411,145.483896 C91.4768411,145.117638 91.7724609,144.820385 92.1376902,144.820385 L92.996794,144.820385 C93.3620232,144.820385 93.657643,145.117638 93.657643,145.483896 C93.657643,145.850154 93.3620232,146.147407 92.996794,146.147407 M100.301379,146.147407 L99.4422751,146.147407 C99.0770458,146.147407 98.781426,145.850154 98.781426,145.483896 C98.781426,145.117638 99.0770458,144.820385 99.4422751,144.820385 L100.301379,144.820385 C100.666608,144.820385 100.962228,145.117638 100.962228,145.483896 C100.962228,145.850154 100.666608,146.147407 100.301379,146.147407 M107.605964,146.147407 L106.74686,146.147407 C106.381631,146.147407 106.086011,145.850154 106.086011,145.483896 C106.086011,145.117638 106.381631,144.820385 106.74686,144.820385 L107.605964,144.820385 C107.971193,144.820385 108.266813,145.117638 108.266813,145.483896 C108.266813,145.850154 107.971193,146.147407 107.605964,146.147407 M114.910549,146.147407 L114.051445,146.147407 C113.686216,146.147407 113.390596,145.850154 113.390596,145.483896 C113.390596,145.117638 113.686216,144.820385 114.051445,144.820385 L114.910549,144.820385 C115.275778,144.820385 115.571398,145.117638 115.571398,145.483896 C115.571398,145.850154 115.275778,146.147407 114.910549,146.147407 M122.215134,146.147407 L121.355589,146.147407 C120.990801,146.147407 120.69474,145.850154 120.69474,145.483896 C120.69474,145.117638 120.990801,144.820385 121.355589,144.820385 L122.215134,144.820385 C122.580363,144.820385 122.875983,145.117638 122.875983,145.483896 C122.875983,145.850154 122.580363,146.147407 122.215134,146.147407 M129.519718,146.147407 L128.660174,146.147407 C128.295385,146.147407 127.999325,145.850154 127.999325,145.483896 C127.999325,145.117638 128.295385,144.820385 128.660174,144.820385 L129.519718,144.820385 C129.884507,144.820385 130.180568,145.117638 130.180568,145.483896 C130.180568,145.850154 129.884507,146.147407 129.519718,146.147407 M136.824303,146.147407 L135.964759,146.147407 C135.59997,146.147407 135.30391,145.850154 135.30391,145.483896 C135.30391,145.117638 135.59997,144.820385 135.964759,144.820385 L136.824303,144.820385 C137.189092,144.820385 137.485152,145.117638 137.485152,145.483896 C137.485152,145.850154 137.189092,146.147407 136.824303,146.147407 M144.128888,146.147407 L143.269785,146.147407 C142.904555,146.147407 142.608935,145.850154 142.608935,145.483896 C142.608935,145.117638 142.904555,144.820385 143.269785,144.820385 L144.128888,144.820385 C144.493677,144.820385 144.789737,145.117638 144.789737,145.483896 C144.789737,145.850154 144.493677,146.147407 144.128888,146.147407" id="Fill-33" fill="#FFFFFF"></path>
                        <path d="M27.2559263,146.147407 L26.8153603,146.147407 C26.450131,146.147407 26.1545112,145.850154 26.1545112,145.483896 C26.1545112,145.117638 26.450131,144.820385 26.8153603,144.820385 L27.2559263,144.820385 C27.6211556,144.820385 27.9167754,145.117638 27.9167754,145.483896 C27.9167754,145.850154 27.6211556,146.147407 27.2559263,146.147407" id="Fill-35" fill="#FFFFFF"></path>
                        <path d="M297.295152,42.9048893 L296.41402,42.9048893 C296.049231,42.9048893 295.753171,42.6076363 295.753171,42.2413781 C295.753171,41.87512 296.049231,41.577867 296.41402,41.577867 L297.295152,41.577867 C297.65994,41.577867 297.956001,41.87512 297.956001,42.2413781 C297.956001,42.6076363 297.65994,42.9048893 297.295152,42.9048893 M304.784774,42.9048893 L303.903642,42.9048893 C303.538854,42.9048893 303.242793,42.6076363 303.242793,42.2413781 C303.242793,41.87512 303.538854,41.577867 303.903642,41.577867 L304.784774,41.577867 C305.149563,41.577867 305.445623,41.87512 305.445623,42.2413781 C305.445623,42.6076363 305.149563,42.9048893 304.784774,42.9048893 M312.274397,42.9048893 L311.393265,42.9048893 C311.028476,42.9048893 310.732416,42.6076363 310.732416,42.2413781 C310.732416,41.87512 311.028476,41.577867 311.393265,41.577867 L312.274397,41.577867 C312.639186,41.577867 312.935246,41.87512 312.935246,42.2413781 C312.935246,42.6076363 312.639186,42.9048893 312.274397,42.9048893 M319.76402,42.9048893 L318.882888,42.9048893 C318.518099,42.9048893 318.222039,42.6076363 318.222039,42.2413781 C318.222039,41.87512 318.518099,41.577867 318.882888,41.577867 L319.76402,41.577867 C320.128808,41.577867 320.424869,41.87512 320.424869,42.2413781 C320.424869,42.6076363 320.128808,42.9048893 319.76402,42.9048893 M327.253642,42.9048893 L326.37251,42.9048893 C326.007722,42.9048893 325.711661,42.6076363 325.711661,42.2413781 C325.711661,41.87512 326.007722,41.577867 326.37251,41.577867 L327.253642,41.577867 C327.618431,41.577867 327.914491,41.87512 327.914491,42.2413781 C327.914491,42.6076363 327.618431,42.9048893 327.253642,42.9048893 M334.743265,42.9048893 L333.862133,42.9048893 C333.497344,42.9048893 333.201284,42.6076363 333.201284,42.2413781 C333.201284,41.87512 333.497344,41.577867 333.862133,41.577867 L334.743265,41.577867 C335.108054,41.577867 335.404114,41.87512 335.404114,42.2413781 C335.404114,42.6076363 335.108054,42.9048893 334.743265,42.9048893 M342.232888,42.9048893 L341.351756,42.9048893 C340.986967,42.9048893 340.690907,42.6076363 340.690907,42.2413781 C340.690907,41.87512 340.986967,41.577867 341.351756,41.577867 L342.232888,41.577867 C342.597676,41.577867 342.893737,41.87512 342.893737,42.2413781 C342.893737,42.6076363 342.597676,42.9048893 342.232888,42.9048893 M349.72251,42.9048893 L348.841378,42.9048893 C348.47659,42.9048893 348.180529,42.6076363 348.180529,42.2413781 C348.180529,41.87512 348.47659,41.577867 348.841378,41.577867 L349.72251,41.577867 C350.087299,41.577867 350.383359,41.87512 350.383359,42.2413781 C350.383359,42.6076363 350.087299,42.9048893 349.72251,42.9048893 M357.212133,42.9048893 L356.331001,42.9048893 C355.966212,42.9048893 355.670152,42.6076363 355.670152,42.2413781 C355.670152,41.87512 355.966212,41.577867 356.331001,41.577867 L357.212133,41.577867 C357.576922,41.577867 357.872982,41.87512 357.872982,42.2413781 C357.872982,42.6076363 357.576922,42.9048893 357.212133,42.9048893 M364.701756,42.9048893 L363.820623,42.9048893 C363.455835,42.9048893 363.159774,42.6076363 363.159774,42.2413781 C363.159774,41.87512 363.455835,41.577867 363.820623,41.577867 L364.701756,41.577867 C365.066544,41.577867 365.362605,41.87512 365.362605,42.2413781 C365.362605,42.6076363 365.066544,42.9048893 364.701756,42.9048893 M372.191378,42.9048893 L371.310246,42.9048893 C370.945457,42.9048893 370.649397,42.6076363 370.649397,42.2413781 C370.649397,41.87512 370.945457,41.577867 371.310246,41.577867 L372.191378,41.577867 C372.556167,41.577867 372.852227,41.87512 372.852227,42.2413781 C372.852227,42.6076363 372.556167,42.9048893 372.191378,42.9048893 M379.681001,42.9048893 L378.799869,42.9048893 C378.43508,42.9048893 378.13902,42.6076363 378.13902,42.2413781 C378.13902,41.87512 378.43508,41.577867 378.799869,41.577867 L379.681001,41.577867 C380.04579,41.577867 380.34185,41.87512 380.34185,42.2413781 C380.34185,42.6076363 380.04579,42.9048893 379.681001,42.9048893 M387.170623,42.9048893 L386.289491,42.9048893 C385.924703,42.9048893 385.628642,42.6076363 385.628642,42.2413781 C385.628642,41.87512 385.924703,41.577867 386.289491,41.577867 L387.170623,41.577867 C387.535412,41.577867 387.831473,41.87512 387.831473,42.2413781 C387.831473,42.6076363 387.535412,42.9048893 387.170623,42.9048893 M394.660246,42.9048893 L393.779114,42.9048893 C393.414325,42.9048893 393.118265,42.6076363 393.118265,42.2413781 C393.118265,41.87512 393.414325,41.577867 393.779114,41.577867 L394.660246,41.577867 C395.025035,41.577867 395.321095,41.87512 395.321095,42.2413781 C395.321095,42.6076363 395.025035,42.9048893 394.660246,42.9048893 M402.149869,42.9048893 L401.268737,42.9048893 C400.903948,42.9048893 400.607888,42.6076363 400.607888,42.2413781 C400.607888,41.87512 400.903948,41.577867 401.268737,41.577867 L402.149869,41.577867 C402.514657,41.577867 402.810718,41.87512 402.810718,42.2413781 C402.810718,42.6076363 402.514657,42.9048893 402.149869,42.9048893 M409.24166,43.8696346 C409.072483,43.8696346 408.903306,43.8046105 408.77422,43.6750046 L408.151259,43.0495348 C407.893088,42.7903231 407.893088,42.3705417 408.151259,42.1113299 C408.409431,41.8521182 408.827528,41.8521182 409.0857,42.1113299 L409.70866,42.7367998 C409.966832,42.9960115 409.966832,43.4157929 409.70866,43.6750046 C409.579574,43.8046105 409.410397,43.8696346 409.24166,43.8696346 M414.537264,49.1865709 C414.368087,49.1865709 414.19935,49.1219892 414.070264,48.9923833 L413.447304,48.3669134 C413.189132,48.1077017 413.189132,47.6879203 413.447304,47.4287086 C413.705475,47.1694969 414.123573,47.1694969 414.381744,47.4287086 L415.004705,48.0541785 C415.262876,48.3133902 415.262876,48.7331716 415.004705,48.9923833 C414.875619,49.1219892 414.706441,49.1865709 414.537264,49.1865709 M419.833749,54.5043919 C419.664572,54.5043919 419.494954,54.4393678 419.366308,54.309762 L418.742907,53.6838497 C418.485176,53.424638 418.485176,53.0044143 418.743348,52.7456449 C419.00152,52.4864332 419.420498,52.4864332 419.677789,52.7456449 L420.30119,53.3715571 C420.558921,53.6307688 420.558921,54.0509926 420.300749,54.309762 C420.171663,54.4393678 420.002486,54.5043919 419.833749,54.5043919 M425.129353,59.8213282 C424.960175,59.8213282 424.791439,59.7567465 424.662353,59.6271406 L424.039392,59.0016707 C423.781221,58.742459 423.781221,58.3222353 424.039392,58.0634659 C424.297564,57.8042542 424.715661,57.8042542 424.973833,58.0634659 L425.596793,58.6889358 C425.854965,58.9481475 425.854965,59.3679289 425.596793,59.6271406 C425.467707,59.7567465 425.29853,59.8213282 425.129353,59.8213282 M430.425838,65.1387069 C430.25666,65.1387069 430.087483,65.0736828 429.958397,64.9440769 L429.334996,64.3186071 C429.076824,64.0598377 429.076824,63.6396139 429.334996,63.3804022 C429.592287,63.1211905 430.011265,63.1211905 430.269437,63.3804022 L430.892838,64.0054298 C431.151009,64.2646415 431.151009,64.6848652 430.892838,64.9440769 C430.764192,65.0736828 430.594574,65.1387069 430.425838,65.1387069 M435.721441,70.4556432 C435.552264,70.4556432 435.383527,70.3910614 435.254441,70.2614556 L434.631481,69.6359857 C434.373309,69.376774 434.373309,68.9569926 434.631481,68.6977809 C434.889212,68.4385692 435.30775,68.4385692 435.565922,68.6977809 L436.188882,69.3232508 C436.447054,69.5824625 436.447054,70.0022439 436.188882,70.2614556 C436.059796,70.3910614 435.890619,70.4556432 435.721441,70.4556432 M441.017486,75.7734642 C440.848308,75.7734642 440.679131,75.7084401 440.550045,75.5788343 L439.927085,74.9533644 C439.668913,74.6941527 439.668913,74.2743713 439.927085,74.0151596 C440.185257,73.7559478 440.603354,73.7559478 440.861525,74.0151596 L441.484486,74.6406294 C441.742657,74.8998411 441.742657,75.3196225 441.484486,75.5788343 C441.3554,75.7084401 441.186223,75.7734642 441.017486,75.7734642 M446.31353,81.0904005 C446.144353,81.0904005 445.975616,81.0258188 445.84653,80.8962129 L445.223129,80.270743 C444.964957,80.0119737 444.964957,79.5917499 445.223129,79.3325382 C445.48042,79.0733265 445.899398,79.0733265 446.15757,79.3325382 L446.780971,79.9575657 C447.039142,80.2167775 447.039142,80.6370012 446.780971,80.8962129 C446.652325,81.0258188 446.482707,81.0904005 446.31353,81.0904005 M451.609574,86.4077792 C451.440397,86.4077792 451.27122,86.3427551 451.142134,86.2131492 L450.519173,85.5876793 C450.261002,85.3284676 450.261002,84.9086862 450.519173,84.6494745 C450.777345,84.3902628 451.195442,84.3902628 451.453614,84.6494745 L452.076574,85.2749444 C452.334746,85.5341561 452.334746,85.9539375 452.076574,86.2131492 C451.947489,86.3427551 451.778311,86.4077792 451.609574,86.4077792 M456.905178,91.7247155 C456.736001,91.7247155 456.567264,91.6601337 456.438178,91.5305279 L455.815218,90.905058 C455.557046,90.6458463 455.557046,90.2260649 455.815218,89.9668532 C456.07339,89.7076415 456.491487,89.7076415 456.749658,89.9668532 L457.372619,90.5923231 C457.63079,90.8515348 457.63079,91.2713162 457.372619,91.5305279 C457.243533,91.6601337 457.074356,91.7247155 456.905178,91.7247155 M462.201663,97.0425365 C462.032486,97.0425365 461.863308,96.9775124 461.734223,96.8479065 L461.111262,96.2224367 C460.85309,95.963225 460.85309,95.5434435 461.111262,95.2842318 C461.369434,95.0250201 461.787531,95.0250201 462.045703,95.2842318 L462.668663,95.9097017 C462.926835,96.1689134 462.926835,96.5886948 462.668663,96.8479065 C462.539577,96.9775124 462.3704,97.0425365 462.201663,97.0425365" id="Fill-37" fill="#FFFFFF"></path>
                        <path d="M313.596095,165.403077 L313.155529,165.403077 C312.79074,165.403077 312.49468,165.105824 312.49468,164.739566 C312.49468,164.373307 312.79074,164.076054 313.155529,164.076054 L313.596095,164.076054 C313.960884,164.076054 314.256944,164.373307 314.256944,164.739566 C314.256944,165.105824 313.960884,165.403077 313.596095,165.403077" id="Fill-39" fill="#FFFFFF"></path>
                        <path d="M320.883102,165.403077 L320.02576,165.403077 C319.660971,165.403077 319.364911,165.105824 319.364911,164.739566 C319.364911,164.373307 319.660971,164.076054 320.02576,164.076054 L320.883102,164.076054 C321.24789,164.076054 321.543951,164.373307 321.543951,164.739566 C321.543951,165.105824 321.24789,165.403077 320.883102,165.403077 M328.170064,165.403077 L327.312722,165.403077 C326.947934,165.403077 326.651873,165.105824 326.651873,164.739566 C326.651873,164.373307 326.947934,164.076054 327.312722,164.076054 L328.170064,164.076054 C328.534852,164.076054 328.830913,164.373307 328.830913,164.739566 C328.830913,165.105824 328.534852,165.403077 328.170064,165.403077 M335.457026,165.403077 L334.599685,165.403077 C334.234896,165.403077 333.938835,165.105824 333.938835,164.739566 C333.938835,164.373307 334.234896,164.076054 334.599685,164.076054 L335.457026,164.076054 C335.821815,164.076054 336.117875,164.373307 336.117875,164.739566 C336.117875,165.105824 335.821815,165.403077 335.457026,165.403077 M342.743988,165.403077 L341.886647,165.403077 C341.521858,165.403077 341.225798,165.105824 341.225798,164.739566 C341.225798,164.373307 341.521858,164.076054 341.886647,164.076054 L342.743988,164.076054 C343.108777,164.076054 343.404837,164.373307 343.404837,164.739566 C343.404837,165.105824 343.108777,165.403077 342.743988,165.403077 M350.030951,165.403077 L349.173609,165.403077 C348.80882,165.403077 348.51276,165.105824 348.51276,164.739566 C348.51276,164.373307 348.80882,164.076054 349.173609,164.076054 L350.030951,164.076054 C350.395739,164.076054 350.6918,164.373307 350.6918,164.739566 C350.6918,165.105824 350.395739,165.403077 350.030951,165.403077 M357.317913,165.403077 L356.461012,165.403077 C356.096223,165.403077 355.800163,165.105824 355.800163,164.739566 C355.800163,164.373307 356.096223,164.076054 356.461012,164.076054 L357.317913,164.076054 C357.682702,164.076054 357.978762,164.373307 357.978762,164.739566 C357.978762,165.105824 357.682702,165.403077 357.317913,165.403077 M364.604875,165.403077 L363.747974,165.403077 C363.383185,165.403077 363.087125,165.105824 363.087125,164.739566 C363.087125,164.373307 363.383185,164.076054 363.747974,164.076054 L364.604875,164.076054 C364.969664,164.076054 365.265724,164.373307 365.265724,164.739566 C365.265724,165.105824 364.969664,165.403077 364.604875,165.403077 M371.891837,165.403077 L371.034936,165.403077 C370.670148,165.403077 370.374087,165.105824 370.374087,164.739566 C370.374087,164.373307 370.670148,164.076054 371.034936,164.076054 L371.891837,164.076054 C372.256626,164.076054 372.552686,164.373307 372.552686,164.739566 C372.552686,165.105824 372.256626,165.403077 371.891837,165.403077 M379.17924,165.403077 L378.321899,165.403077 C377.95711,165.403077 377.66105,165.105824 377.66105,164.739566 C377.66105,164.373307 377.95711,164.076054 378.321899,164.076054 L379.17924,164.076054 C379.544029,164.076054 379.840089,164.373307 379.840089,164.739566 C379.840089,165.105824 379.544029,165.403077 379.17924,165.403077 M386.466202,165.403077 L385.608861,165.403077 C385.244072,165.403077 384.948012,165.105824 384.948012,164.739566 C384.948012,164.373307 385.244072,164.076054 385.608861,164.076054 L386.466202,164.076054 C386.830991,164.076054 387.127052,164.373307 387.127052,164.739566 C387.127052,165.105824 386.830991,165.403077 386.466202,165.403077 M393.753165,165.403077 L392.895823,165.403077 C392.531035,165.403077 392.234974,165.105824 392.234974,164.739566 C392.234974,164.373307 392.531035,164.076054 392.895823,164.076054 L393.753165,164.076054 C394.117953,164.076054 394.414014,164.373307 394.414014,164.739566 C394.414014,165.105824 394.117953,165.403077 393.753165,165.403077 M401.040127,165.403077 L400.182785,165.403077 C399.817997,165.403077 399.521936,165.105824 399.521936,164.739566 C399.521936,164.373307 399.817997,164.076054 400.182785,164.076054 L401.040127,164.076054 C401.405356,164.076054 401.700976,164.373307 401.700976,164.739566 C401.700976,165.105824 401.405356,165.403077 401.040127,165.403077 M408.327089,165.403077 L407.469748,165.403077 C407.104959,165.403077 406.808899,165.105824 406.808899,164.739566 C406.808899,164.373307 407.104959,164.076054 407.469748,164.076054 L408.327089,164.076054 C408.692318,164.076054 408.987938,164.373307 408.987938,164.739566 C408.987938,165.105824 408.692318,165.403077 408.327089,165.403077 M415.614052,165.403077 L414.757151,165.403077 C414.392362,165.403077 414.096302,165.105824 414.096302,164.739566 C414.096302,164.373307 414.392362,164.076054 414.757151,164.076054 L415.614052,164.076054 C415.979281,164.076054 416.274901,164.373307 416.274901,164.739566 C416.274901,165.105824 415.979281,165.403077 415.614052,165.403077 M422.901454,165.403077 L422.044113,165.403077 C421.679324,165.403077 421.383264,165.105824 421.383264,164.739566 C421.383264,164.373307 421.679324,164.076054 422.044113,164.076054 L422.901454,164.076054 C423.266243,164.076054 423.562303,164.373307 423.562303,164.739566 C423.562303,165.105824 423.266243,165.403077 422.901454,165.403077" id="Fill-41" fill="#FFFFFF"></path>
                        <path d="M429.771729,165.403077 L429.331163,165.403077 C428.966375,165.403077 428.670314,165.105824 428.670314,164.739566 C428.670314,164.373307 428.966375,164.076054 429.331163,164.076054 L429.771729,164.076054 C430.136518,164.076054 430.432578,164.373307 430.432578,164.739566 C430.432578,165.105824 430.136518,165.403077 429.771729,165.403077" id="Fill-43" fill="#FFFFFF"></path>
                        <path d="M6.97742057,57.8541945 C6.97742057,59.7885508 5.41561396,61.3570912 3.48901868,61.3570912 C1.56198283,61.3570912 0.000176226415,59.7885508 0.000176226415,57.8541945 C0.000176226415,55.9198382 1.56198283,54.3512978 3.48901868,54.3512978 C5.41561396,54.3512978 6.97742057,55.9198382 6.97742057,57.8541945" id="Fill-45" fill="#FFFFFF"></path>
                        <g id="Group-49" transform="translate(459.950943, 94.218589)">
                            <mask id="mask-14" fill="white">
                                <use xlink:href="#path-13"></use>
                            </mask>
                            <g id="Clip-48"></g>
                            <path d="M0.015904434,3.77759036 C0.015904434,1.84323408 1.57771104,0.274693632 3.50474689,0.274693632 C5.43134217,0.274693632 6.99314877,1.84323408 6.99314877,3.77759036 C6.99314877,5.71238898 5.43134217,7.28048709 3.50474689,7.28048709 C1.57771104,7.28048709 0.015904434,5.71238898 0.015904434,3.77759036" id="Fill-47" fill="#FFFFFF" mask="url(#mask-14)"></path>
                        </g>
                        <path d="M20.9789617,145.483896 C20.9789617,147.418252 19.4171551,148.986793 17.4901192,148.986793 C15.563524,148.986793 14.0017174,147.418252 14.0017174,145.483896 C14.0017174,143.54954 15.563524,141.980999 17.4901192,141.980999 C19.4171551,141.980999 20.9789617,143.54954 20.9789617,145.483896" id="Fill-50" fill="#FFFFFF"></path>
                        <path d="M436.193948,165.167619 C436.193948,163.233262 437.756196,161.664722 439.682791,161.664722 C441.609827,161.664722 443.171633,163.233262 443.171633,165.167619 C443.171633,167.102417 441.609827,168.670515 439.682791,168.670515 C437.756196,168.670515 436.193948,167.102417 436.193948,165.167619" id="Fill-52" fill="#FFFFFF"></path>
                        <path d="M187.970232,73.2475656 L139.636613,73.2475656 C138.141332,73.2475656 136.928894,72.0306861 136.928894,70.5289391 L136.928894,12.7340182 C136.928894,11.2327136 138.141332,10.0153917 139.636613,10.0153917 L187.970232,10.0153917 C189.465953,10.0153917 190.67795,11.2327136 190.67795,12.7340182 L190.67795,70.5289391 C190.67795,72.0306861 189.465953,73.2475656 187.970232,73.2475656" id="Fill-54" fill="#D2D2D4"></path>
                        <path d="M176.639886,64.5260207 L149.881667,64.5260207 C146.92591,64.5260207 144.529671,62.1205714 144.529671,59.1529071 C144.529671,56.185685 146.92591,53.7797935 149.881667,53.7797935 L176.639886,53.7797935 C179.595203,53.7797935 181.991001,56.185685 181.991001,59.1529071 C181.991001,62.1205714 179.595203,64.5260207 176.639886,64.5260207" id="Fill-56" fill="#FFFFFF"></path>
                        <polygon id="Fill-58" fill="#E5AA4B" points="151.338311 56.3202451 152.163491 57.9984861 154.008141 58.2674293 152.673226 59.5736616 152.988231 61.4186651 151.338311 60.547696 149.688391 61.4186651 150.003836 59.5736616 148.668481 58.2674293 150.513571 57.9984861"></polygon>
                        <polygon id="Fill-60" fill="#E5AA4B" points="157.541084 56.3202451 158.366264 57.9984861 160.210914 58.2674293 158.875999 59.5736616 159.191004 61.4186651 157.541084 60.547696 155.891164 61.4186651 156.20661 59.5736616 154.871254 58.2674293 156.716345 57.9984861"></polygon>
                        <polygon id="Fill-62" fill="#E5AA4B" points="163.743858 56.3202451 164.568597 57.9984861 166.413688 58.2674293 165.078773 59.5736616 165.393777 61.4186651 163.743858 60.547696 162.093938 61.4186651 162.408942 59.5736616 161.074027 58.2674293 162.918677 57.9984861"></polygon>
                        <polygon id="Fill-64" fill="#E5AA4B" points="169.946631 56.3202451 170.77137 57.9984861 172.616461 58.2674293 171.281105 59.5736616 171.596551 61.4186651 169.946631 60.547696 168.296711 61.4186651 168.611716 59.5736616 167.276801 58.2674293 169.121451 57.9984861"></polygon>
                        <polygon id="Fill-66" fill="#E5AA4B" points="176.149404 56.3202451 176.974144 57.9984861 178.819234 58.2674293 177.483879 59.5736616 177.799324 61.4186651 176.149404 60.547696 174.499484 61.4186651 174.814489 59.5736616 173.479574 58.2674293 175.324224 57.9984861"></polygon>
                        <path d="M178.782888,32.9945535 C178.782888,41.7896155 171.681844,48.918822 162.92251,48.918822 C154.162736,48.918822 147.062133,41.7896155 147.062133,32.9945535 C147.062133,24.1999339 154.162736,17.070285 162.92251,17.070285 C171.681844,17.070285 178.782888,24.1999339 178.782888,32.9945535" id="Fill-68" fill="#404757"></path>
                        <path d="M162.92251,48.918822 C166.75984,48.918822 170.279082,47.5502196 173.022487,45.2730492 C172.119767,43.3838117 170.202423,42.07581 167.976684,42.07581 L159.087383,42.07581 C156.590255,42.07581 154.476419,43.7182213 153.754772,45.9852179 C156.343538,47.8306637 159.50548,48.918822 162.92251,48.918822" id="Fill-70" fill="#FFFFFF"></path>
                        <path d="M155.180355,37.5942343 C155.930199,39.3945613 155.617397,40.6344425 155.536333,40.9016164 L155.580389,40.9538126 C156.551397,40.8989623 157.740044,39.5728246 157.628581,37.9370484 C157.521523,36.375143 157.707883,35.4997506 157.924641,35.0105217 C158.306612,36.7338814 159.635359,40.9555819 163.532166,40.9555819 C168.582815,40.9555819 169.275384,34.2846404 169.275384,34.2846404 C169.290804,34.2320019 170.227888,26.3892997 163.532166,26.3892997 C162.958989,26.3892997 162.460268,26.4649399 161.99415,26.5706594 C161.551821,25.5661034 160.32881,23.4623306 158.106154,24.3700139 C154.630529,25.7894855 155.951346,29.1132343 156.439933,30.1341568 C157.188455,31.6956198 152.789844,31.8561895 155.180355,37.5942343" id="Fill-72" fill="#FFFFFF"></path>
                    </g>
                    <g id="Group-77" transform="translate(104.414151, 225.156329)">
                        <mask id="mask-16" fill="white">
                            <use xlink:href="#path-15"></use>
                        </mask>
                        <g id="Clip-76"></g>
                        <path d="M248.666045,0.33529432 C248.666045,7.83916351 235.638948,15.3054337 212.926007,20.8200964 L212.926007,20.8200964 C189.509922,26.5059449 158.362784,29.636833 125.222085,29.636833 L125.222085,29.636833 C92.0813858,29.636833 60.9346887,26.5059449 37.5181632,20.8200964 L37.5181632,20.8200964 C14.8052217,15.3054337 1.77812453,7.83916351 1.77812453,0.33529432 L1.77812453,0.33529432 L0.0163009434,0.33529432 C0.0163009434,11.8202306 23.2526349,19.1772427 37.1040311,22.5399174 L37.1040311,22.5399174 C60.6518453,28.2576145 91.9461321,31.4061962 125.222085,31.4061962 L125.222085,31.4061962 C158.498038,31.4061962 189.792765,28.2576145 213.340139,22.5399174 L213.340139,22.5399174 C227.191535,19.1772427 250.427869,11.8202306 250.427869,0.33529432 L250.427869,0.33529432 L248.666045,0.33529432 Z" id="Fill-75" fill="url(#linearGradient-17)" mask="url(#mask-16)"></path>
                    </g>
                    <g id="Group-80" transform="translate(104.414151, 99.089203)">
                        <mask id="mask-19" fill="white">
                            <use xlink:href="#path-18"></use>
                        </mask>
                        <g id="Clip-79"></g>
                        <path d="M248.666045,0.351218589 C248.666045,7.85508778 235.638948,15.3218003 212.926007,20.836463 L212.926007,20.836463 C189.509922,26.5218692 158.362784,29.6527573 125.222085,29.6527573 L125.222085,29.6527573 C92.0813858,29.6527573 60.9346887,26.5218692 37.5181632,20.836463 L37.5181632,20.836463 C14.8052217,15.3218003 1.77812453,7.85508778 1.77812453,0.351218589 L1.77812453,0.351218589 L0.0163009434,0.351218589 C0.0163009434,11.8361549 23.2526349,19.1927246 37.1040311,22.5558417 L37.1040311,22.5558417 C60.6518453,28.2735387 91.9461321,31.4221205 125.222085,31.4221205 L125.222085,31.4221205 C158.498038,31.4221205 189.792765,28.2735387 213.340139,22.5558417 L213.340139,22.5558417 C227.191535,19.1927246 250.427869,11.8361549 250.427869,0.351218589 L250.427869,0.351218589 L248.666045,0.351218589 Z" id="Fill-78" fill="url(#linearGradient-20)" mask="url(#mask-19)"></path>
                    </g>
                    <g id="Group-83" transform="translate(104.414151, 166.767344)">
                        <mask id="mask-22" fill="white">
                            <use xlink:href="#path-21"></use>
                        </mask>
                        <g id="Clip-82"></g>
                        <path d="M248.666045,0.22913253 C248.666045,7.73255938 235.638948,15.1992719 212.926007,20.7139346 L212.926007,20.7139346 C189.509481,26.3988985 158.362784,29.5306713 125.222085,29.5306713 L125.222085,29.5306713 C92.0818264,29.5306713 60.9346887,26.3988985 37.5181632,20.7139346 L37.5181632,20.7139346 C14.8052217,15.1992719 1.77812453,7.73255938 1.77812453,0.22913253 L1.77812453,0.22913253 L0.0163009434,0.22913253 C0.0163009434,11.7136265 23.2526349,19.0706386 37.1040311,22.4333133 L37.1040311,22.4333133 C60.6518453,28.1510103 91.9461321,31.2995921 125.222085,31.2995921 L125.222085,31.2995921 C158.498038,31.2995921 189.792325,28.1510103 213.340139,22.4333133 L213.340139,22.4333133 C227.191535,19.0706386 250.427869,11.7136265 250.427869,0.22913253 L250.427869,0.22913253 L248.666045,0.22913253 Z" id="Fill-81" fill="url(#linearGradient-23)" mask="url(#mask-22)"></path>
                    </g>
                    <g id="Group-86" transform="translate(104.414151, 31.411062)">
                        <mask id="mask-25" fill="white">
                            <use xlink:href="#path-24"></use>
                        </mask>
                        <g id="Clip-85"></g>
                        <path d="M248.666045,0.102623064 C248.666045,7.60604991 235.638948,15.0727625 212.926007,20.5874251 L212.926007,20.5874251 C189.509922,26.2728313 158.362784,29.4041618 125.222085,29.4041618 L125.222085,29.4041618 C92.0813858,29.4041618 60.9346887,26.2728313 37.5181632,20.5874251 L37.5181632,20.5874251 C14.8052217,15.0727625 1.77812453,7.60604991 1.77812453,0.102623064 L1.77812453,0.102623064 L0.0163009434,0.102623064 C0.0163009434,11.587117 23.2526349,18.9441291 37.1040311,22.3068038 L37.1040311,22.3068038 C60.6518453,28.0245009 91.9461321,31.1730826 125.222085,31.1730826 L125.222085,31.1730826 C158.498038,31.1730826 189.792765,28.0245009 213.340139,22.3068038 L213.340139,22.3068038 C227.191535,18.9441291 250.427869,11.587117 250.427869,0.102623064 L250.427869,0.102623064 L248.666045,0.102623064 Z" id="Fill-84" fill="url(#linearGradient-26)" mask="url(#mask-25)"></path>
                    </g>
                </g>
            </g>
        </g>
    </g>
</svg>